# AST/ASF file generated using VICON BodyLanguage
# -----------------------------------------------
:version 1.10
:name VICON
:units
  mass 1.0
  length 0.45
  angle deg
:documentation
   .ast/.asf automatically generated from VICON data using
   VICON BodyBuilder and BodyLanguage model FoxedUp or BRILLIANT.MOD
:root
   order TX TY TZ RX RY RZ
   axis XYZ
   position 0 0 0  
   orientation 0 0 0 
:bonedata
  begin
     id 1 
     name lhipjoint
     direction 0.570549 -0.739093 0.358072 
     length 2.41801 
     axis 0 0 0  XYZ
  end
  begin
     id 2 
     name lfemur
     direction 0.34202 -0.939693 0  
     length 7.44434  
     axis 0 0 20  XYZ
    dof rx ry rz
    limits (-160.0 20.0)
           (-70.0 70.0)
           (-60.0 70.0)
  end
  begin
     id 3 
     name ltibia
     direction 0.34202 -0.939693 0   
     length 7.60047   
     axis 0 0 20   XYZ
    dof rx
    limits (-10.0 170.0)
  end
  begin
     id 4 
     name lfoot
     direction 0.0909041 -0.249757 0.964032   
     length 2.03437   
     axis -90 7.62852e-016 20   XYZ
    dof rx rz
    limits (-45.0 90.0)
           (-70.0 20.0)
  end
  begin
     id 5 
     name ltoes
     direction 1.53547e-011 -4.2174e-011 1   
     length 1.02054   
     axis -90 7.62852e-016 20   XYZ
    dof rx
    limits (-90.0 20.0)
  end
  begin
     id 6 
     name rhipjoint
     direction -0.558096 -0.746754 0.361784   
     length 2.3932  
     axis 0 0 0  XYZ 
  end
  begin
     id 7 
     name rfemur
     direction -0.34202 -0.939693 0   
     length 7.3886   
     axis 0 0 -20   XYZ
    dof rx ry rz
    limits (-160.0 20.0)
           (-70.0 70.0)
           (-70.0 60.0)
  end
  begin
     id 8 
     name rtibia
     direction -0.34202 -0.939693 0   
     length 7.4839   
     axis 0 0 -20   XYZ
    dof rx
    limits (-10.0 170.0)
 end
 begin
     id 9 
     name rfoot
     direction -0.114619 -0.314914 0.942174   
     length 2.25127  
     axis -90 -7.62852e-016 -20   XYZ
    dof rx rz
    limits (-45.0 90.0)
           (-20.0 70.0)
  end
  begin
     id 10 
     name rtoes
     direction -1.53518e-011 -4.21881e-011 1   
     length 1.11821   
     axis -90 -7.62852e-016 -20   XYZ
    dof rx
    limits (-90.0 20.0)
  end
  begin
     id 11 
     name lowerback
     direction -0.00902269 0.996426 -0.0839821   
     length 2.25052   
     axis 0 0 0   XYZ
    dof rx ry rz
    limits (-20.0 45.0)
           (-30.0 30.0)
           (-30.0 30.0)
  end
  begin
     id 12 
     name upperback
     direction 0.0370973 0.999169 -0.0168941   
     length 2.24876   
     axis 0 0 0   XYZ
    dof rx ry rz
    limits (-20.0 45.0)
           (-30.0 30.0)
           (-30.0 30.0)
  end
  begin
     id 13 
     name thorax
     direction 0.0402726 0.998931 0.0227027   
     length 2.26408   
     axis 0 0 0   XYZ
    dof rx ry rz
    limits (-20.0 45.0)
           (-30.0 30.0)
           (-30.0 30.0)
  end
  begin
     id 14 
     name lowerneck
     direction -0.0733697 0.98508 0.155675   
     length 1.58204   
     axis 0 0 0   XYZ
    dof rx ry rz
    limits (-20.0 45.0)
           (-30.0 30.0)
           (-30.0 30.0)
  end
  begin
     id 15 
     name upperneck
     direction 0.0426554 0.993501 -0.105526   
     length 1.61222   
     axis 0 0 0   XYZ
    dof rx ry rz
    limits (-20.0 45.0)
           (-30.0 30.0)
           (-30.0 30.0)
  end
  begin
     id 16
     name head
     direction 0.020792 0.998384 -0.0528868  
     length 1.61527  
     axis 0 0 0   XYZ
    dof rx ry rz
    limits (-20.0 45.0)
           (-30.0 30.0)
           (-30.0 30.0)
  end
  begin
     id 17 
     name lclavicle
     direction 0.967109 0.155462 -0.201325  
     length 3.59357  
     axis 0 0 0   XYZ
    dof ry rz
    limits (-20.0 10.0)
           (0.0 20.0)
  end
  begin
     id 18 
     name lhumerus
     direction 1 -4.48968e-011 2.38195e-027   
     length 5.38154   
     axis 180 -30 -90   XYZ
    dof rx ry rz
    limits (-60.0 90.0)
           (-90.0 90.0)
           (-90.0 90.0)
  end
  begin
     id 19
     name lradius
     direction 1 -4.48961e-011 4.85371e-027   
     length 3.33312   
     axis 180 -30 -90   XYZ
    dof rx
    limits (-10.0 170.0)
  end
  begin
     id 20
     name lwrist
     direction 1 -4.48961e-011 4.76515e-027   
     length 1.66656   
     axis -3.27502e-015 90 90   XYZ
    dof ry
    limits (-180.0 0.0)
 end
  begin
     id 21 
     name lhand
     direction 1 -4.48951e-011 9.53074e-027   
     length 0.710789   
     axis -6.08098e-015 90 90   XYZ
    dof rx rz
    limits (-90.0 90.0)
           (-45.0 45.0)
  end
  begin
     id 22 
     name lfingers
     direction 1 -4.48953e-011 1.90613e-026   
     length 0.573057   
     axis -1.21619e-014 90 90   XYZ
    dof rx
    limits (0.0 90.0)
  end
  begin
     id 23
     name lthumb
     direction 0.707107 -6.34973e-011 0.707107   
     length 0.822798   
     axis -90 45 -9.86923e-015   XYZ
    dof rx rz
    limits (-45.0 45.0)
           (-45.0 45.0)
  end
  begin
     id 24 
     name rclavicle
     direction -0.9585 0.265289 -0.104398   
     length 3.42039  
     axis 0 0 0   XYZ 
    dof ry rz
    limits (-10.0 20.0)
           (-20.0 0.0)
  end
  begin
     id 25 
     name rhumerus
     direction -1 -4.48977e-011 2.21478e-027  
     length 5.16954   
     axis 180 30 90   XYZ
    dof rx ry rz
    limits (-90.0 60.0)
           (-90.0 90.0)
           (-90.0 90.0)
  end
  begin
     id 26 
     name rradius
     direction -1 -4.48967e-011 5.63677e-027   
     length 3.38287   
     axis 180 30 90   XYZ
    dof rx
    limits (-10.0 170.0)
  end
  begin
     id 27 
     name rwrist
     direction -1 -4.48967e-011 4.76501e-027   
     length 1.69144   
     axis -3.27502e-015 -90 -90   XYZ
    dof ry
    limits (-180.0 0.0)
  end
  begin
     id 28
     name rhand
     direction -1 -4.48902e-011 9.53292e-027   
     length 0.817967   
     axis -6.08098e-015 -90 -90   XYZ
    dof rx rz
    limits (-90.0 90.0)
           (-45.0 45.0)
  end
  begin
     id 29
     name rfingers
     direction -1 -4.49012e-011 1.90561e-026   
     length 0.659466   
     axis -1.21619e-014 -90 -90   XYZ
    dof rx
    limits (0.0 90.0)
  end
  begin
     id 30
     name rthumb
     direction -0.707107 -6.34944e-011 0.707107   
     length 0.946865   
     axis -90 -45 9.86923e-015   XYZ
    dof rx rz
    limits (-45.0 45.0)
           (-45.0 45.0)
  end
:hierarchy
  begin
    root lhipjoint rhipjoint lowerback
    lhipjoint lfemur
    lfemur ltibia
    ltibia lfoot
    lfoot ltoes
    rhipjoint rfemur
    rfemur rtibia
    rtibia rfoot
    rfoot rtoes
    lowerback upperback
    upperback thorax
    thorax lowerneck lclavicle rclavicle
    lowerneck upperneck
    upperneck head
    lclavicle lhumerus
    lhumerus lradius
    lradius lwrist
    lwrist lhand lthumb
    lhand lfingers
    rclavicle rhumerus
    rhumerus rradius
    rradius rwrist
    rwrist rhand rthumb
    rhand rfingers
  end

#!OML:ASF F:\twosubjects\two\wednesday\Session 1\Justin1.ASF
:FULLY-SPECIFIED
:DEGREES
83
root 3.19529 17.5146 -3.11671 -1.24713 -3.014 -6.55091
lowerback 1.49239 0.612788 5.59963
upperback 0.84432 0.889258 4.58291
thorax 0.0442623 0.451754 1.56404
lowerneck -17.5865 -2.30324 -9.09883
upperneck 22.3361 -1.76522 4.58313
head 10.1638 -1.05176 2.90162
rclavicle -1.55301e-015 -1.51076e-014
rhumerus -25.1488 -14.5687 -81.7354
rradius 26.8509
rwrist -14.7885
rhand -16.7552 15.3786
rfingers 7.12502
rthumb 9.47151 -14.3886
lclavicle -1.55301e-015 -1.51076e-014
lhumerus -19.916 12.7252 84.1236
lradius 33.7957
lwrist -2.4006
lhand 0.386737 38.4982
lfingers 7.12502
lthumb 25.9607 66.7452
rfemur -5.22794 1.29511 33.7606
rtibia 24.6557
rfoot -15.1815 1.79473
rtoes -0.435675
lfemur -24.2402 6.55614 -9.837
ltibia 51.158
lfoot -21.9023 -3.36012
ltoes -14.2823
84
root 3.20021 17.5469 -2.94956 -1.27523 -3.08703 -6.05367
lowerback 1.47591 0.723348 5.25458
upperback 0.83086 1.03197 4.47815
thorax 0.0370323 0.522109 1.64568
lowerneck -17.5852 -2.40643 -8.80472
upperneck 22.2274 -1.80054 3.82678
head 10.1208 -1.13011 2.57455
rclavicle -3.2551e-015 -1.27222e-014
rhumerus -24.0719 -14.3511 -81.8349
rradius 27.2354
rwrist -15.3448
rhand -16.7826 15.4562
rfingers 7.12502
rthumb 9.44513 -14.3121
lclavicle -3.2551e-015 -1.27222e-014
lhumerus -20.8458 12.7744 84.3418
lradius 33.318
lwrist -2.76945
lhand 0.184451 38.4508
lfingers 7.12502
lthumb 25.767 66.726
rfemur -4.06698 1.23991 33.1353
rtibia 23.6294
rfoot -15.121 2.08774
rtoes -1.01092
lfemur -24.9862 5.9659 -10.5078
ltibia 49.6691
lfoot -21.9311 -2.59005
ltoes -13.1332
85
root 3.207 17.5706 -2.787 -1.1068 -3.07894 -5.68332
lowerback 1.36731 0.809639 5.02844
upperback 0.746817 1.14084 4.31637
thorax 0.0111043 0.575211 1.60375
lowerneck -17.5269 -2.44263 -9.16921
upperneck 22.2156 -1.86945 4.29185
head 10.1179 -1.13827 2.79216
rclavicle 5.26158e-015 -1.43125e-014
rhumerus -23.0342 -14.023 -82.1022
rradius 27.7329
rwrist -16.1978
rhand -16.4908 15.7427
rfingers 7.12502
rthumb 9.72664 -14.0127
lclavicle 5.26158e-015 -1.43125e-014
lhumerus -21.7873 12.1945 84.3493
lradius 33.0135
lwrist -2.627
lhand 0.262269 38.5289
lfingers 7.12502
lthumb 25.8416 66.7933
rfemur -3.11554 0.83346 32.6445
rtibia 22.6119
rfoot -15.1809 2.35928
rtoes -3.52057
lfemur -25.9128 5.45212 -11.0403
ltibia 48.0412
lfoot -22.0152 -1.84216
ltoes -13.3899
86
root 3.21405 17.566 -2.63971 -0.794655 -3.37208 -6.23014
lowerback 1.45938 0.98676 5.62535
upperback 0.573742 1.40385 4.44258
thorax -0.204979 0.702095 1.39559
lowerneck -17.4816 -2.5152 -9.43052
upperneck 22.2532 -1.98471 4.62129
head 10.1374 -1.176 2.93861
rclavicle -2.05369e-014 -3.89618e-014
rhumerus -21.9975 -13.824 -82.3251
rradius 28.1478
rwrist -16.8762
rhand -16.2092 16.1079
rfingers 7.12502
rthumb 9.99831 -13.6346
lclavicle -2.05369e-014 -3.89618e-014
lhumerus -22.7785 12.0079 84.3715
lradius 32.5769
lwrist -2.60429
lhand 0.0806182 38.0896
lfingers 7.12502
lthumb 25.6676 66.3792
rfemur -2.35908 0.976078 33.1954
rtibia 21.6861
rfoot -15.0085 2.52991
rtoes -2.80792
lfemur -26.9221 5.36211 -10.5256
ltibia 46.3459
lfoot -22.118 -0.999257
ltoes -14.4195
87
root 3.22231 17.5621 -2.48704 -0.738021 -3.69575 -6.3614
lowerback 1.56853 1.1731 5.79827
upperback 0.530517 1.66761 4.51533
thorax -0.303568 0.83148 1.36812
lowerneck -17.4927 -2.65391 -9.48601
upperneck 22.3238 -2.1079 4.40503
head 10.1752 -1.26413 2.85399
rclavicle 2.84014e-014 2.70347e-014
rhumerus -20.9049 -13.7164 -82.3932
rradius 28.4616
rwrist -17.128
rhand -16.3608 16.4021
rfingers 7.12502
rthumb 9.8521 -13.3474
lclavicle 2.84014e-014 2.70347e-014
lhumerus -23.7027 12.2334 84.4849
lradius 31.8726
lwrist -2.99224
lhand -1.05977 36.7774
lfingers 7.12502
lthumb 24.5749 65.2201
rfemur -1.36203 1.2146 33.2717
rtibia 20.7651
rfoot -14.5227 2.834
rtoes 1.24788
lfemur -27.5244 5.26313 -10.4631
ltibia 44.6136
lfoot -22.3591 0.17727
ltoes -16.799
88
root 3.23249 17.5643 -2.32973 -0.719884 -3.92169 -6.43068
lowerback 1.44342 1.25268 5.87867
upperback 0.670116 1.75256 4.53607
thorax -0.0858917 0.879268 1.34899
lowerneck -17.7419 -2.70192 -9.20289
upperneck 22.3455 -2.1395 4.04382
head 10.226 -1.29522 2.67233
rclavicle -3.54085e-015 8.74653e-015
rhumerus -19.6034 -13.5224 -82.6732
rradius 28.8457
rwrist -17.2799
rhand -16.6354 16.4079
rfingers 7.12502
rthumb 9.58718 -13.3539
lclavicle -3.54085e-015 8.74653e-015
lhumerus -24.3198 12.4067 84.4594
lradius 31.0856
lwrist -3.41241
lhand -1.30852 36.1042
lfingers 7.12502
lthumb 24.3365 64.5791
rfemur -0.277234 1.27888 33.284
rtibia 19.7694
rfoot -13.8912 3.16667
rtoes 4.48375
lfemur -28.1103 4.87984 -10.4328
ltibia 42.873
lfoot -22.6684 1.32504
ltoes -19.2362
89
root 3.24349 17.5598 -2.17388 -0.50155 -4.44113 -7.3336
lowerback 1.30273 1.425 6.84681
upperback 0.834778 1.96464 4.75791
thorax 0.193223 0.99408 1.04806
lowerneck -18.1533 -2.72407 -9.13401
upperneck 22.301 -2.14169 4.02013
head 10.2864 -1.28859 2.65036
rclavicle -5.05658e-015 -9.54166e-015
rhumerus -18.1765 -13.3205 -83.0173
rradius 29.298
rwrist -17.5908
rhand -15.833 17.4062
rfingers 7.12502
rthumb 10.3613 -12.3186
lclavicle -5.05658e-015 -9.54166e-015
lhumerus -24.7713 12.3766 84.4964
lradius 30.4522
lwrist -3.5078
lhand 0.853583 37.6368
lfingers 7.12502
lthumb 26.4077 65.8175
rfemur 0.67696 1.57158 34.2219
rtibia 18.7734
rfoot -13.5084 3.49527
rtoes 5.01268
lfemur -28.835 4.43317 -9.35483
ltibia 41.0672
lfoot -22.4092 2.34132
ltoes -18.1982
90
root 3.24649 17.5646 -2.01022 -0.423088 -4.88604 -7.70777
lowerback 1.44644 1.61113 7.30854
upperback 0.714814 2.24207 4.78218
thorax 0.0144846 1.12728 0.810149
lowerneck -17.774 -2.71826 -9.1785
upperneck 22.1294 -2.18847 4.14325
head 10.1579 -1.29948 2.69386
rclavicle 1.85739e-014 3.33958e-014
rhumerus -17.3534 -12.9624 -83.223
rradius 29.7292
rwrist -18.0814
rhand -14.7752 18.6424
rfingers 7.12502
rthumb 11.3815 -11.0287
lclavicle 1.85739e-014 3.33958e-014
lhumerus -25.7616 11.8226 84.4648
lradius 29.749
lwrist -3.12624
lhand -0.0448426 37.39
lfingers 7.12502
lthumb 25.5474 65.6969
rfemur 1.76151 1.81759 34.6104
rtibia 17.7446
rfoot -13.4685 3.50057
rtoes 3.57148
lfemur -29.3388 4.01005 -8.81064
ltibia 39.2175
lfoot -22.1253 3.03742
ltoes -15.4423
91
root 3.25013 17.5749 -1.85198 -0.364234 -4.81609 -7.22563
lowerback 1.60532 1.5747 6.92602
upperback 0.457539 2.22623 4.48408
thorax -0.344573 1.10714 0.70278
lowerneck -17.5032 -2.6145 -8.77684
upperneck 22.2692 -2.16351 4.04195
head 10.1474 -1.27077 2.59704
rclavicle 5.54423e-014 6.83819e-014
rhumerus -16.6977 -12.5309 -83.634
rradius 30.1067
rwrist -18.4758
rhand -15.7374 17.4592
rfingers 7.12502
rthumb 10.4534 -12.2609
lclavicle 5.54423e-014 6.83819e-014
lhumerus -26.9494 11.5089 84.1171
lradius 28.9614
lwrist -2.9718
lhand -1.54682 36.2927
lfingers 7.12502
lthumb 24.108 64.7981
rfemur 2.79945 1.59284 34.0338
rtibia 16.6094
rfoot -13.4979 3.38662
rtoes 1.94294
lfemur -29.9709 3.431 -9.2925
ltibia 37.4401
lfoot -22.2781 3.47103
ltoes -15.0939
92
root 3.25924 17.5859 -1.69663 -0.206732 -4.7731 -6.82901
lowerback 1.55453 1.54298 6.57153
upperback 0.428505 2.17532 4.34358
thorax -0.35579 1.08155 0.754925
lowerneck -17.6998 -2.56067 -8.67589
upperneck 22.26 -2.09032 4.01185
head 10.1738 -1.23006 2.57914
rclavicle -9.31803e-016 -3.4191e-014
rhumerus -15.4611 -12.1738 -83.9517
rradius 30.3247
rwrist -18.7355
rhand -18.005 14.9571
rfingers 7.12502
rthumb 8.26547 -14.8612
lclavicle -9.31803e-016 -3.4191e-014
lhumerus -27.785 11.9069 83.8817
lradius 28.3387
lwrist -3.77702
lhand -2.18842 36.082
lfingers 7.12502
lthumb 23.4927 64.6676
rfemur 3.73768 1.2021 33.4692
rtibia 15.4831
rfoot -13.5616 3.68626
rtoes 1.42339
lfemur -30.6024 2.92458 -9.70494
ltibia 35.6948
lfoot -22.3642 3.91091
ltoes -15.4819
93
root 3.2685 17.5937 -1.54639 0.1127 -4.93161 -7.14255
lowerback 1.46645 1.72917 6.91589
upperback 0.369573 2.42388 4.49288
thorax -0.350768 1.20426 0.717812
lowerneck -17.385 -2.67185 -9.13668
upperneck 21.7059 -2.20946 4.30554
head 9.9346 -1.28256 2.73686
rclavicle -1.71576e-014 0
rhumerus -14.2917 -11.9871 -83.8477
rradius 30.6564
rwrist -19.1483
rhand -19.1412 13.8188
rfingers 7.12502
rthumb 7.16881 -16.0398
lclavicle -1.71576e-014 0
lhumerus -28.6099 12.2736 83.9382
lradius 27.8326
lwrist -5.22298
lhand -1.35911 36.4711
lfingers 7.12502
lthumb 24.288 64.9526
rfemur 4.5479 1.14161 33.6712
rtibia 14.2613
rfoot -13.3612 4.15527
rtoes 3.56992
lfemur -31.3459 2.70268 -9.32297
ltibia 34.0319
lfoot -21.974 4.25218
ltoes -15.0095
94
root 3.28143 17.5964 -1.39741 0.510278 -5.12433 -7.21135
lowerback 1.29873 1.96183 7.15959
upperback 0.235391 2.7288 4.43162
thorax -0.369396 1.35332 0.52078
lowerneck -17.257 -2.77454 -9.33809
upperneck 21.562 -2.35505 4.50226
head 9.87556 -1.34239 2.81857
rclavicle -1.11816e-015 3.18055e-014
rhumerus -13.374 -11.8703 -83.8459
rradius 31.1768
rwrist -19.6628
rhand -16.8975 16.608
rfingers 7.12502
rthumb 9.33427 -13.1653
lclavicle -1.11816e-015 3.18055e-014
lhumerus -29.4385 12.2745 83.9424
lradius 27.1575
lwrist -5.89647
lhand -0.696467 36.3985
lfingers 7.12502
lthumb 24.9231 64.7934
rfemur 5.41556 1.09904 33.5846
rtibia 12.7421
rfoot -12.8479 4.61676
rtoes 5.26472
lfemur -32.2734 2.46534 -9.20266
ltibia 32.5559
lfoot -21.6909 4.79169
ltoes -15.6338
95
root 3.29038 17.601 -1.23276 0.630156 -5.50319 -7.04104
lowerback 1.26382 2.07687 7.0153
upperback 0.184571 2.87949 4.29881
thorax -0.396005 1.42719 0.462085
lowerneck -17.4764 -2.76281 -9.05777
upperneck 21.89 -2.36936 4.37024
head 10.0288 -1.34441 2.72714
rclavicle -2.07978e-014 -2.62396e-014
rhumerus -12.4232 -11.512 -84.141
rradius 31.5462
rwrist -19.9684
rhand -17.0501 15.9741
rfingers 7.12502
rthumb 9.18699 -13.8058
lclavicle -2.07978e-014 -2.62396e-014
lhumerus -30.6057 12.5015 83.6848
lradius 26.887
lwrist -5.72014
lhand -0.666138 36.7385
lfingers 7.12502
lthumb 24.9522 65.1294
rfemur 6.90696 1.11892 33.2788
rtibia 10.8228
rfoot -12.3402 4.76319
rtoes 3.25946
lfemur -32.9126 2.28258 -9.30339
ltibia 31.3244
lfoot -21.9753 5.5476
ltoes -18.1671
